<svg xmlns="http://www.w3.org/2000/svg" version="1.1" xmlns:xlink="http://www.w3.org/1999/xlink" xmlns:svgjs="http://svgjs.dev/svgjs" width="1920" height="1920" preserveAspectRatio="none" viewBox="0 0 1920 1920"><g mask="url(&quot;#SvgjsMask1226&quot;)" fill="none"><rect width="1920" height="1920" x="0" y="0" fill="url(&quot;#SvgjsLinearGradient1227&quot;)"></rect><path d="M1707.55 194.48L1809.84 194.48L1809.84 236.09L1707.55 236.09z" fill="#d3b714"></path><path d="M1120.08 1353.94L1226.35 1353.94L1226.35 1439.12L1120.08 1439.12z" stroke="#d3b714"></path><path d="M1239.4 1916.07 a139.41 139.41 0 1 0 278.82 0 a139.41 139.41 0 1 0 -278.82 0z" fill="#d3b714"></path><path d="M154.18 755.48a63.11 63.11 0 1 0-77.93-99.29z" fill="#d3b714"></path><path d="M671.81 390.82L710.21 390.82L710.21 477.3L671.81 477.3z" fill="#e73635"></path><path d="M320.81 1294.22a148.2 148.2 0 1 0 60.5-290.16z" stroke="#e73635"></path><path d="M280.84 637.01L446.78 637.01L446.78 748.13L280.84 748.13z" fill="rgba(28, 165, 51, 1)"></path><path d="M396.44 680.5 a162.4 162.4 0 1 0 324.8 0 a162.4 162.4 0 1 0 -324.8 0z" stroke="rgba(154, 219, 165, 1)"></path><path d="M788.03 967.45L795.34 967.45L795.34 1011.71L788.03 1011.71z" fill="rgba(28, 165, 51, 1)"></path><path d="M137.59 1861.08L303.84 1861.08L303.84 2042.28L137.59 2042.28z" fill="rgba(28, 165, 51, 1)"></path><path d="M1317.02 492.14L1349.97 492.14L1349.97 525.09L1317.02 525.09z" stroke="#e73635"></path><path d="M1726.93 1768.77L1738.64 1768.77L1738.64 1813.34L1726.93 1813.34z" stroke="rgba(28, 165, 51, 1)"></path><path d="M-66.37 983.95 a127.51 127.51 0 1 0 255.02 0 a127.51 127.51 0 1 0 -255.02 0z" stroke="#e73635"></path></g><defs><mask id="SvgjsMask1226"><rect width="1920" height="1920" fill="#ffffff"></rect></mask><linearGradient x1="0%" y1="50%" x2="100%" y2="50%" gradientUnits="userSpaceOnUse" id="SvgjsLinearGradient1227"><stop stop-color="#0e2a47" offset="0"></stop><stop stop-color="rgba(0, 37, 158, 1)" offset="1"></stop></linearGradient></defs></svg>