<svg xmlns="http://www.w3.org/2000/svg" version="1.1" xmlns:xlink="http://www.w3.org/1999/xlink" xmlns:svgjs="http://svgjs.dev/svgjs" width="1440" height="560" preserveAspectRatio="none" viewBox="0 0 1440 560"><g mask="url(&quot;#SvgjsMask1003&quot;)" fill="none"><rect width="1440" height="560" x="0" y="0" fill="#0e2a47"></rect><path d="M25.99 338.9L65.24 338.9L65.24 378.15L25.99 378.15z" fill="#e73635"></path><path d="M955.8 62.73a8.2 8.2 0 1 0-10.39 12.69z" fill="#d3b714"></path><path d="M748.69 422.22a23.24 23.24 0 1 0-9.42-45.51z" stroke="rgba(154, 219, 165, 1)"></path><path d="M145.72 305.93L180.17 305.93L180.17 358.51L145.72 358.51z" fill="#e73635"></path><path d="M412.99 561.5a30.41 30.41 0 1 0-53.47-28.98z" stroke="rgba(154, 219, 165, 1)"></path><path d="M885.74 511.35L896.92 511.35L896.92 522.53L885.74 522.53z" stroke="#e73635"></path><path d="M587.62 324.4L632.94 324.4L632.94 369.72L587.62 369.72z" fill="#d3b714"></path><path d="M849 71.83L881.88 71.83L881.88 102.59L849 102.59z" stroke="rgba(28, 165, 51, 1)"></path><path d="M1391.9 74.88a27.77 27.77 0 1 0-31.3 45.88z" fill="#d3b714"></path><path d="M69.61 493.98L119.12 493.98L119.12 543.49L69.61 543.49z" stroke="rgba(154, 219, 165, 1)"></path><path d="M196.12 558.59a7.88 7.88 0 1 0 15.36-3.54z" fill="#d3b714"></path><path d="M209.2 461.81 a24.36 24.36 0 1 0 48.72 0 a24.36 24.36 0 1 0 -48.72 0z" stroke="#d3b714"></path><path d="M527.03 87.6L580.92 87.6L580.92 141.49L527.03 141.49z" fill="rgba(28, 165, 51, 1)"></path><path d="M1290.59 48.61L1335.87 48.61L1335.87 87.75L1290.59 87.75z" fill="rgba(28, 165, 51, 1)"></path><path d="M897.1 469.87a5.84 5.84 0 1 0-11.27 3.05z" stroke="#d3b714"></path><path d="M1252.49 310.24L1272.07 310.24L1272.07 329.82L1252.49 329.82z" fill="#e73635"></path><path d="M1145.65 291.53a11.99 11.99 0 1 0-2.01-23.89z" stroke="#e73635"></path><path d="M130.18 496.53 a48.59 48.59 0 1 0 97.18 0 a48.59 48.59 0 1 0 -97.18 0z" stroke="rgba(28, 165, 51, 1)"></path><path d="M431.71 513.2 a25.49 25.49 0 1 0 50.98 0 a25.49 25.49 0 1 0 -50.98 0z" fill="#d3b714"></path><path d="M126.59 339.74L157.35 339.74L157.35 370.5L126.59 370.5z" stroke="rgba(28, 165, 51, 1)"></path><path d="M1151.41 451.29 a3.49 3.49 0 1 0 6.98 0 a3.49 3.49 0 1 0 -6.98 0z" fill="#e73635"></path><path d="M744.97 448.6L755.72 448.6L755.72 459.35L744.97 459.35z" stroke="#e73635"></path><path d="M617.51 280.67L661.44 280.67L661.44 324.6L617.51 324.6z" fill="#e73635"></path><path d="M284.62 189.74 a18.57 18.57 0 1 0 37.14 0 a18.57 18.57 0 1 0 -37.14 0z" stroke="rgba(154, 219, 165, 1)"></path><path d="M1439.96 487.11L1476.21 487.11L1476.21 523.36L1439.96 523.36z" stroke="rgba(154, 219, 165, 1)"></path><path d="M1130.96 236.23a47.97 47.97 0 1 0-34.72 89.44z" stroke="rgba(28, 165, 51, 1)"></path><path d="M1107.98 423.56L1132.08 423.56L1132.08 425.74L1107.98 425.74z" stroke="#e73635"></path><path d="M547.33 282.99 a27.92 27.92 0 1 0 55.84 0 a27.92 27.92 0 1 0 -55.84 0z" fill="rgba(154, 219, 165, 1)"></path><path d="M1206.56 342.06L1258.09 342.06L1258.09 393.59L1206.56 393.59z" fill="rgba(154, 219, 165, 1)"></path><path d="M810.69 455.85a49.57 49.57 0 1 0-89.5 42.65z" fill="rgba(28, 165, 51, 1)"></path><path d="M464.51 15.22L513.08 15.22L513.08 24.65L464.51 24.65z" stroke="#e73635"></path><path d="M738.62 237.71L762.44 237.71L762.44 273.59L738.62 273.59z" stroke="rgba(28, 165, 51, 1)"></path><path d="M9.33 298.01L36.34 298.01L36.34 344.06L9.33 344.06z" fill="#d3b714"></path></g><defs><mask id="SvgjsMask1003"><rect width="1440" height="560" fill="#ffffff"></rect></mask></defs></svg>