<svg xmlns="http://www.w3.org/2000/svg" version="1.1" xmlns:xlink="http://www.w3.org/1999/xlink" xmlns:svgjs="http://svgjs.dev/svgjs" width="1920" height="1080" preserveAspectRatio="none" viewBox="0 0 1920 1080"><g mask="url(&quot;#SvgjsMask1218&quot;)" fill="none"><rect width="1920" height="1080" x="0" y="0" fill="url(&quot;#SvgjsLinearGradient1219&quot;)"></rect><path d="M58.92 427.18L165.83 427.18L165.83 501.9L58.92 501.9z" fill="#d3b714"></path><path d="M620.81 187.88L655.91 187.88L655.91 222.98L620.81 222.98z" fill="#d3b714"></path><path d="M1229.01 717.6L1309.08 717.6L1309.08 797.67L1229.01 797.67z" fill="rgba(28, 165, 51, 1)"></path><path d="M1338.21 976.02 a12.41 12.41 0 1 0 24.82 0 a12.41 12.41 0 1 0 -24.82 0z" fill="rgba(28, 165, 51, 1)"></path><path d="M624.84 17.83L732.18 17.83L732.18 61.07L624.84 61.07z" stroke="rgba(154, 219, 165, 1)"></path><path d="M907.8 1051.77a32.34 32.34 0 1 0-62.34-17.24z" fill="rgba(28, 165, 51, 1)"></path><path d="M234.08 145.78L303.96 145.78L303.96 232.71L234.08 232.71z" fill="#d3b714"></path><path d="M1276.31 978.47a16.91 16.91 0 1 0-32.99-7.45z" fill="#e73635"></path><path d="M549.11 764.07L563.08 764.07L563.08 809.17L549.11 809.17z" fill="rgba(28, 165, 51, 1)"></path><path d="M1748.7 642.25 a86.54 86.54 0 1 0 173.08 0 a86.54 86.54 0 1 0 -173.08 0z" stroke="#d3b714"></path><path d="M1293.31 978.5a60.66 60.66 0 1 0-67.73 100.66z" fill="rgba(28, 165, 51, 1)"></path><path d="M331.25 300.52a16.48 16.48 0 1 0-27.89 17.56z" stroke="rgba(154, 219, 165, 1)"></path><path d="M1546.85 560.3a74.35 74.35 0 1 0-121.45 85.81z" fill="rgba(28, 165, 51, 1)"></path><path d="M1846.28 231.51L1909.61 231.51L1909.61 294.84L1846.28 294.84z" stroke="#e73635"></path><path d="M1488.78 190.42L1490.41 190.42L1490.41 192.05L1488.78 192.05z" fill="#e73635"></path><path d="M109.45 44.58a24.41 24.41 0 1 0-20.79-44.17z" stroke="rgba(154, 219, 165, 1)"></path><path d="M1525.01 215.73L1560.74 215.73L1560.74 265.89L1525.01 265.89z" stroke="rgba(154, 219, 165, 1)"></path><path d="M241.45 743.31L246.66 743.31L246.66 816.48L241.45 816.48z" stroke="rgba(28, 165, 51, 1)"></path><path d="M86.1 856.22a15.4 15.4 0 1 0-25.47 17.32z" fill="rgba(154, 219, 165, 1)"></path><path d="M1520.02 570.95L1599.82 570.95L1599.82 650.75L1520.02 650.75z" fill="#e73635"></path><path d="M1721.04 24.66a2.06 2.06 0 1 0-1.67-3.76z" stroke="#d3b714"></path><path d="M1443.28 694.93L1447.28 694.93L1447.28 740.56L1443.28 740.56z" fill="#e73635"></path><path d="M1900.48 872.83L1984.25 872.83L1984.25 956.6L1900.48 956.6z" fill="#d3b714"></path></g><defs><mask id="SvgjsMask1218"><rect width="1920" height="1080" fill="#ffffff"></rect></mask><linearGradient x1="0%" y1="50%" x2="100%" y2="50%" gradientUnits="userSpaceOnUse" id="SvgjsLinearGradient1219"><stop stop-color="#0e2a47" offset="0"></stop><stop stop-color="rgba(0, 37, 158, 1)" offset="1"></stop></linearGradient></defs></svg>